Coordinates
version=1
nRows=10
nColumns=40
inDegrees=yes

Units are S.I. units (second, meters, Newtons, ...)
If the header above contains a line with 'inDegrees', this indicates whether rotational values are in degrees (yes) or radians (no).

endheader
time	pelvis_tilt	pelvis_list	pelvis_rotation	pelvis_tx	pelvis_ty	pelvis_tz	hip_flexion_r	hip_adduction_r	hip_rotation_r	knee_angle_r	knee_angle_r_beta	ankle_angle_r	subtalar_angle_r	mtp_angle_r	hip_flexion_l	hip_adduction_l	hip_rotation_l	knee_angle_l	knee_angle_l_beta	ankle_angle_l	subtalar_angle_l	mtp_angle_l	lumbar_extension	lumbar_bending	lumbar_rotation	arm_flex_r	arm_add_r	arm_rot_r	elbow_flex_r	pro_sup_r	wrist_flex_r	wrist_dev_r	arm_flex_l	arm_add_l	arm_rot_l	elbow_flex_l	pro_sup_l	wrist_flex_l	wrist_dev_l
      0.34000000	      3.68280423	     -5.90521373	     -0.97911460	     -0.12731617	      0.94063215	      0.23566368	     -0.77693692	      7.27770181	    -11.44451887	      9.62317320	      0.16795606	     -0.16424944	     -5.12694640	      0.00000000	     19.31840440	    -19.47000846	    -12.40305440	     71.95137522	      1.25578840	     -4.17214891	     -9.86527407	      0.00000000	     -5.44905268	      7.47871632	     -2.71626776	     44.34865555	    -15.88659877	     44.34865555	     75.10406211	     44.95657208	      0.00000000	      0.00000000	     44.34865555	    -15.88659877	     44.34865555	     75.10406211	     44.95657208	      0.00000000	      0.00000000
      0.34500000	      3.86469251	     -5.57343964	     -1.20006476	     -0.12096239	      0.94149269	      0.23593490	     -1.58123829	      6.86940103	    -11.60553446	      9.37179685	      0.16356871	      0.22252777	     -4.21931854	      0.00000000	     19.57338083	    -19.04368602	    -12.84013282	     70.96789651	      1.23862346	     -3.65288044	     -9.36970928	      0.00000000	     -5.69823165	      7.00891883	     -2.54843395	     44.34989122	    -15.88381961	     44.34989122	     75.10342481	     44.95730834	      0.00000000	      0.00000000	     44.34989122	    -15.88381961	     44.34989122	     75.10342481	     44.95730834	      0.00000000	      0.00000000
      0.35000000	      3.80046586	     -5.51217334	     -1.36421691	     -0.11472253	      0.94171593	      0.23588194	     -2.07061399	      6.76534478	    -11.73916103	      9.17065997	      0.16005821	      0.39938758	     -3.87790213	      0.00000000	     20.24680990	    -18.92224639	    -13.15199003	     70.12226277	      1.22386436	     -3.30833428	     -9.18034806	      0.00000000	     -5.63071235	      6.93298313	     -2.52803573	     44.35014637	    -15.88324625	     44.35014637	     75.10329360	     44.95745882	      0.00000000	      0.00000000	     44.35014637	    -15.88324625	     44.35014637	     75.10329360	     44.95745882	      0.00000000	      0.00000000
      0.35500000	      4.37861072	     -4.43992036	     -1.79891565	     -0.10826778	      0.94351481	      0.23680141	     -3.14880408	      5.43609781	    -12.16258925	      9.26425732	      0.16169179	      1.27951761	     -2.10346917	      0.00000000	     19.59154316	    -17.69120925	    -14.20202860	     68.48796883	      1.19534055	     -2.93587666	     -8.78856028	      0.00000000	     -6.38528474	      5.58010519	     -1.83342275	     44.35382039	    -15.87500559	     44.35382039	     75.10141649	     44.95957542	      0.00000000	      0.00000000	     44.35382039	    -15.87500559	     44.35382039	     75.10141649	     44.95957542	      0.00000000	      0.00000000
      0.36000000	      4.29401909	     -4.51204447	     -1.91977311	     -0.10206064	      0.94350892	      0.23669127	     -3.58468668	      5.47856566	    -12.29002177	      9.12534163	      0.15926726	      1.44800614	     -1.89778702	      0.00000000	     20.27702699	    -17.70214910	    -14.42018361	     67.53849504	      1.17876911	     -2.68074223	     -8.57341425	      0.00000000	     -6.29294925	      5.65144749	     -1.88802692	     44.35398319	    -15.87464123	     44.35398319	     75.10133391	     44.95966691	      0.00000000	      0.00000000	     44.35398319	    -15.87464123	     44.35398319	     75.10133391	     44.95966691	      0.00000000	      0.00000000
      0.36500000	      4.77303961	     -3.67361781	     -2.29163663	     -0.09559922	      0.94483429	      0.23745947	     -4.63705315	      4.43143792	    -12.58777972	      8.99737748	      0.15703386	      2.14036439	     -0.34410356	      0.00000000	     19.79117841	    -16.73065188	    -15.31609944	     65.90587658	      1.15027454	     -2.18935623	     -7.87512649	      0.00000000	     -6.89848546	      4.54171686	     -1.39003954	     44.35737686	    -15.86705782	     44.35737686	     75.09962214	     44.96153443	      0.00000000	      0.00000000	     44.35737686	    -15.86705782	     44.35737686	     75.09962214	     44.96153443	      0.00000000	      0.00000000
      0.37000000	      4.66628918	     -3.79033494	     -2.40296120	     -0.08940610	      0.94463786	      0.23733760	     -5.03217661	      4.52090908	    -12.70893138	      8.88811929	      0.15512695	      2.30848919	     -0.16834746	      0.00000000	     20.45456924	    -16.78511963	    -15.52355046	     64.84726444	      1.13179828	     -1.97272881	     -7.67198017	      0.00000000	     -6.79690548	      4.65964781	     -1.46887677	     44.35752315	    -15.86673159	     44.35752315	     75.09954885	     44.96161308	      0.00000000	      0.00000000	     44.35752315	    -15.86673159	     44.35752315	     75.09954885	     44.96161308	      0.00000000	      0.00000000
      0.37500000	      5.08881836	     -3.06537472	     -2.80201448	     -0.08291277	      0.94570010	      0.23822857	     -6.05509154	      3.61740278	    -12.85154188	      8.67226870	      0.15135964	      2.88238360	      1.21861022	      0.00000000	     19.98587404	    -15.92937425	    -16.35937735	     63.08649918	      1.10106712	     -1.52479393	     -6.91241453	      0.00000000	     -7.30450150	      3.61431279	     -1.02833687	     44.36011759	    -15.86095324	     44.36011759	     75.09825495	     44.96298420	      0.00000000	      0.00000000	     44.36011759	    -15.86095324	     44.36011759	     75.09825495	     44.96298420	      0.00000000	      0.00000000
      0.38000000	      4.96984869	     -3.22263823	     -2.88922801	     -0.07671814	      0.94533135	      0.23800109	     -6.41946827	      3.74111663	    -12.98400732	      8.59603266	      0.15002907	      3.07477917	      1.34215770	      0.00000000	     20.60954529	    -16.02079390	    -16.58251113	     61.91881876	      1.08068726	     -1.32776609	     -6.72247226	      0.00000000	     -7.18383692	      3.79862451	     -1.13543008	     44.36024930	    -15.86066035	     44.36024930	     75.09818959	     44.96305263	      0.00000000	      0.00000000	     44.36024930	    -15.86066035	     44.36024930	     75.09818959	     44.96305263	      0.00000000	      0.00000000
      0.38500000	      5.40703605	     -2.47780195	     -3.31302757	     -0.07027315	      0.94627804	      0.23894377	     -7.41659802	      2.79750330	    -13.09182008	      8.42916356	      0.14711666	      3.64416722	      2.61234925	      0.00000000	     20.04828595	    -15.13561559	    -17.47636355	     59.98115163	      1.04686859	     -0.94687855	     -5.98513051	      0.00000000	     -7.71158869	      2.77266966	     -0.59840287	     44.36298622	    -15.85458117	     44.36298622	     75.09683726	     44.96445183	      0.00000000	      0.00000000	     44.36298622	    -15.85458117	     44.36298622	     75.09683726	     44.96445183	      0.00000000	      0.00000000
